<?xml version="1.0" encoding="UTF-8" standalone="no"?>
<svg
   svg:contrastcolor="ffffff"
   svg:template="Contrast"
   svg:presentation="2.5"
   svg:layouttype="undefined"
   svg:specialfontid="undefined"
   svg:id1="769"
   svg:id2="865"
   svg:companyname="Inventory"
   svg:companytagline=""
   version="1.1"
   viewBox="0 35 550 400"
   id="svg22"
   sodipodi:docname="logo.svg"
   inkscape:version="1.4.2 (2aeb623e1d, 2025-05-12)"
   xmlns:inkscape="http://www.inkscape.org/namespaces/inkscape"
   xmlns:sodipodi="http://sodipodi.sourceforge.net/DTD/sodipodi-0.dtd"
   xmlns="http://www.w3.org/2000/svg"
   xmlns:svg="http://www.w3.org/2000/svg">
  <defs
     id="defs22" />
  <sodipodi:namedview
     id="namedview22"
     pagecolor="#ffffff"
     bordercolor="#000000"
     borderopacity="0.25"
     inkscape:showpageshadow="2"
     inkscape:pageopacity="0.0"
     inkscape:pagecheckerboard="0"
     inkscape:deskcolor="#d1d1d1"
     inkscape:zoom="1.6109091"
     inkscape:cx="245.82393"
     inkscape:cy="192.74831"
     inkscape:window-width="1920"
     inkscape:window-height="1043"
     inkscape:window-x="0"
     inkscape:window-y="0"
     inkscape:window-maximized="1"
     inkscape:current-layer="svg22" />
  <g
     fill="#6366f1"
     fill-rule="none"
     stroke="none"
     stroke-width="1"
     stroke-linecap="butt"
     stroke-linejoin="miter"
     stroke-miterlimit="10"
     stroke-dasharray=""
     stroke-dashoffset="0"
     font-family="none"
     font-weight="none"
     font-size="none"
     text-anchor="none"
     style="mix-blend-mode: normal"
     id="g10">
    <g
       data-paper-data="{&quot;isGlobalGroup&quot;:true,&quot;bounds&quot;:{&quot;x&quot;:67.79475530246563,&quot;y&quot;:114.99999999999997,&quot;width&quot;:414.4104893950687,&quot;height&quot;:240.00000000000003}}"
       id="g9"
       transform="matrix(1.8792988,0,0,1.8792988,-246.46287,-127.16238)">
      <g
         data-paper-data="{&quot;isPrimaryText&quot;:true}"
         fill-rule="nonzero"
         id="g7" />
      <g
         data-paper-data="{&quot;fillRule&quot;:&quot;evenodd&quot;,&quot;fillRuleOriginal&quot;:&quot;evenodd&quot;,&quot;isIcon&quot;:true,&quot;iconStyle&quot;:&quot;standalone&quot;,&quot;selectedEffects&quot;:{&quot;container&quot;:&quot;&quot;,&quot;transformation&quot;:&quot;&quot;,&quot;pattern&quot;:&quot;&quot;},&quot;bounds&quot;:{&quot;x&quot;:198.9285990171393,&quot;y&quot;:114.99999999999997,&quot;width&quot;:152.14280196572142,&quot;height&quot;:151.98267166665246},&quot;iconType&quot;:&quot;icon&quot;,&quot;isDetailed&quot;:false,&quot;source&quot;:&quot;noun&quot;,&quot;rawIconId&quot;:&quot;3012404&quot;,&quot;suitableAsStandaloneIcon&quot;:true}"
         fill-rule="evenodd"
         id="g8">
        <path
           d="m 329.29096,223.58193 c 0,12.01127 -9.76917,21.78044 -21.78044,21.78044 h -65.02103 c -12.01127,0 -21.78044,-9.76917 -21.78044,-21.78044 V 158.5609 c 0,-12.01127 9.76917,-21.78044 21.78044,-21.78044 h 18.89774 v -21.78044 h -18.89774 c -24.02255,0 -43.56089,19.53834 -43.56089,43.56089 v 64.86088 c 0,24.02255 19.53834,43.56089 43.56089,43.56089 h 64.86088 c 24.02255,0 43.56089,-19.53834 43.56089,-43.56089 V 204.6842 H 329.29097 Z M 340.18118,115 h -54.61126 v 21.78044 h 28.34661 l -60.21652,60.21652 c -4.32406,4.16391 -4.32406,11.21052 0,15.37443 2.08195,2.08195 4.96466,3.20301 7.68721,3.20301 2.72256,0 5.60526,-1.12105 7.68721,-3.20301 l 60.21652,-60.21652 v 28.34661 h 21.78044 V 125.89022 C 351.07139,119.80451 346.26688,115 340.18117,115 Z"
           data-paper-data="{&quot;isPathIcon&quot;:true}"
           fill="#6366f1"
           id="path8" />
      </g>
    </g>
  </g>
  <g
     class="watermark-group"
     style="opacity:0;stroke:#ffffff;stroke-width:2;stroke-opacity:0"
     id="g22"
     transform="translate(121.67043,-93.115124)">
    <path
       class="watermark-path"
       d="m 129.52,370.3 a 11.88,11.88 0 0 1 2.58,5.58 12,12 0 0 1 0.11,3 11.81,11.81 0 0 1 -0.64,2.93 12.34,12.34 0 0 1 -1.41,2.72 11.65,11.65 0 0 1 -2.13,2.32 12,12 0 0 1 -2.64,1.69 13,13 0 0 1 -2.91,0.9 12.47,12.47 0 0 1 -3,0.12 12.17,12.17 0 0 1 -2.93,-0.64 11.8,11.8 0 0 1 -2.72,-1.38 12.19,12.19 0 0 1 -4,-4.79 11.85,11.85 0 0 1 -0.89,-2.92 12.14,12.14 0 0 1 -0.13,-3 11.54,11.54 0 0 1 0.64,-2.92 11.67,11.67 0 0 1 3.5,-5 11.44,11.44 0 0 1 2.67,-1.69 11.64,11.64 0 0 1 2.92,-0.91 10.71,10.71 0 0 1 3,-0.12 11.68,11.68 0 0 1 5.66,2 11.7,11.7 0 0 1 2.34,2.12 m -1.4,8.76 a 13,13 0 0 1 -1.22,2.32 9.68,9.68 0 0 1 -1.81,2 7.44,7.44 0 0 1 -2.38,1.37 6.17,6.17 0 0 1 -5.11,-0.46 8.73,8.73 0 0 1 -3.85,-4.58 6.69,6.69 0 0 1 -0.34,-2.66 6.09,6.09 0 0 1 0.77,-2.47 7.15,7.15 0 0 1 1.75,-2.11 9.58,9.58 0 0 1 1.09,-0.81 8.23,8.23 0 0 1 1.12,-0.63 8.14,8.14 0 0 1 1.19,-0.46 12.71,12.71 0 0 1 1.32,-0.37 l 2,2.38 a 12.83,12.83 0 0 0 -1.56,0.17 7.86,7.86 0 0 0 -1.23,0.32 4.5,4.5 0 0 0 -1,0.49 6.41,6.41 0 0 0 -0.93,0.67 4.49,4.49 0 0 0 -1.15,1.39 3.87,3.87 0 0 0 -0.45,1.58 4.12,4.12 0 0 0 0.26,1.63 6.11,6.11 0 0 0 2.36,2.82 4.43,4.43 0 0 0 1.57,0.53 3.91,3.91 0 0 0 1.62,-0.17 4.71,4.71 0 0 0 1.57,-0.89 10.5,10.5 0 0 0 0.83,-0.79 5.71,5.71 0 0 0 0.65,-0.93 10.13,10.13 0 0 0 0.54,-1.14 12.24,12.24 0 0 0 0.44,-1.49 l 2,2.33 m -14.46,4.55 a 8.86,8.86 0 0 0 2.78,2.22 9,9 0 0 0 3.29,0.94 9.15,9.15 0 0 0 3.39,-0.37 8.68,8.68 0 0 0 3.11,-1.69 8.8,8.8 0 0 0 2.22,-2.78 9.15,9.15 0 0 0 1,-3.29 8.95,8.95 0 0 0 -4.83,-8.76 9,9 0 0 0 -6.73,-0.57 9,9 0 0 0 -5.33,4.47 8.94,8.94 0 0 0 -0.57,6.71 8.76,8.76 0 0 0 1.7,3.12"
       id="path10" />
    <path
       class="watermark-path"
       d="m 147,349 c -0.48,0.12 -1.09,0.31 -1.82,0.57 a 24.37,24.37 0 0 0 -2.4,1 28.35,28.35 0 0 0 -2.78,1.43 20.72,20.72 0 0 0 -2.71,1.94 c -0.7,0.59 -1.28,1.11 -1.74,1.57 a 15.07,15.07 0 0 0 -1.1,1.22 4.09,4.09 0 0 0 -0.59,0.92 2.32,2.32 0 0 0 -0.22,0.64 1.16,1.16 0 0 0 0,0.47 1.83,1.83 0 0 0 0.18,0.29 1.15,1.15 0 0 0 1,0.37 5.54,5.54 0 0 0 1.51,-0.38 q 0.87,-0.35 1.95,-0.9 l 2.26,-1.18 q 1.2,-0.65 2.49,-1.29 c 0.87,-0.44 1.73,-0.83 2.59,-1.17 a 18.94,18.94 0 0 1 2.6,-0.81 9.27,9.27 0 0 1 2.46,-0.29 6.25,6.25 0 0 1 2.24,0.49 5.12,5.12 0 0 1 1.89,1.47 6.35,6.35 0 0 1 1.41,2.61 6,6 0 0 1 0.09,2.6 8.3,8.3 0 0 1 -0.9,2.52 17.79,17.79 0 0 1 -1.62,2.37 23.92,23.92 0 0 1 -2,2.15 c -0.72,0.67 -1.41,1.29 -2.09,1.87 a 33.79,33.79 0 0 1 -5.33,3.7 32.29,32.29 0 0 1 -4.91,2.28 l -3.61,-4.3 a 21.38,21.38 0 0 0 5.39,-1.87 27.2,27.2 0 0 0 5.4,-3.56 21.59,21.59 0 0 0 2.38,-2.27 8.67,8.67 0 0 0 1.18,-1.7 2.32,2.32 0 0 0 0.27,-1.19 1.34,1.34 0 0 0 -0.28,-0.74 1.21,1.21 0 0 0 -1,-0.42 4.32,4.32 0 0 0 -1.55,0.34 15.77,15.77 0 0 0 -2,0.88 c -0.72,0.37 -1.48,0.77 -2.27,1.21 l -2.45,1.3 c -0.85,0.45 -1.7,0.85 -2.56,1.21 a 22.37,22.37 0 0 1 -2.54,0.86 10,10 0 0 1 -2.43,0.32 5.76,5.76 0 0 1 -2.2,-0.45 5,5 0 0 1 -1.89,-1.45 6.12,6.12 0 0 1 -1.31,-2.41 6,6 0 0 1 -0.1,-2.41 8.28,8.28 0 0 1 0.81,-2.38 14.06,14.06 0 0 1 1.49,-2.24 22.37,22.37 0 0 1 1.85,-2.05 q 1,-1 2,-1.77 c 0.7,-0.59 1.44,-1.15 2.23,-1.7 0.79,-0.55 1.62,-1.06 2.44,-1.53 0.82,-0.47 1.63,-0.91 2.43,-1.3 0.8,-0.39 1.58,-0.75 2.3,-1 L 147,349"
       id="path11" />
    <path
       class="watermark-path"
       d="m 186.76,337.57 -10.6,-12.63 3.92,18.24 -4.66,3.91 -17.27,-7 10.6,12.63 -4.86,4.07 -15.09,-18 6.59,-5.54 18.69,7.52 -4.15,-19.71 6.57,-5.52 15.09,18 -4.83,4.05"
       id="path12" />
    <path
       class="watermark-path"
       d="m 208.84,313.24 -10,8.42 1.16,4.82 -5.44,4.52 -5.68,-25.89 5.42,-4.55 24.51,10.09 -5.42,4.55 -4.55,-2 m -11.23,3.45 6.57,-5.52 -8.83,-3.87 2.26,9.39"
       id="path13" />
    <path
       class="watermark-path"
       d="m 227.49,281.38 c -0.48,0.12 -1.09,0.31 -1.82,0.57 a 24.37,24.37 0 0 0 -2.4,1 26.11,26.11 0 0 0 -2.7,1.47 20.72,20.72 0 0 0 -2.71,1.94 c -0.7,0.59 -1.28,1.11 -1.74,1.57 a 13.39,13.39 0 0 0 -1.1,1.22 4.29,4.29 0 0 0 -0.59,0.91 2.48,2.48 0 0 0 -0.22,0.65 1.16,1.16 0 0 0 0,0.47 1.83,1.83 0 0 0 0.18,0.29 1.15,1.15 0 0 0 1,0.37 5.54,5.54 0 0 0 1.51,-0.38 q 0.87,-0.34 2,-0.9 l 2.26,-1.18 q 1.2,-0.64 2.49,-1.29 c 0.87,-0.44 1.73,-0.83 2.59,-1.17 a 18.94,18.94 0 0 1 2.6,-0.81 9.27,9.27 0 0 1 2.46,-0.29 6.08,6.08 0 0 1 2.24,0.49 5.09,5.09 0 0 1 1.89,1.46 6.47,6.47 0 0 1 1.41,2.61 6.07,6.07 0 0 1 0.09,2.61 8.3,8.3 0 0 1 -0.9,2.52 16.32,16.32 0 0 1 -1.63,2.36 21.41,21.41 0 0 1 -2,2.16 c -0.72,0.67 -1.41,1.29 -2.1,1.86 a 33.36,33.36 0 0 1 -5.32,3.71 31.92,31.92 0 0 1 -4.92,2.28 l -3.6,-4.3 a 21.38,21.38 0 0 0 5.39,-1.87 27.2,27.2 0 0 0 5.4,-3.56 21.59,21.59 0 0 0 2.38,-2.27 8.67,8.67 0 0 0 1.18,-1.7 2.32,2.32 0 0 0 0.19,-1.18 1.34,1.34 0 0 0 -0.28,-0.74 1.21,1.21 0 0 0 -1,-0.42 4.32,4.32 0 0 0 -1.55,0.34 16.54,16.54 0 0 0 -2,0.88 c -0.71,0.37 -1.47,0.77 -2.26,1.21 l -2.46,1.3 c -0.84,0.44 -1.7,0.85 -2.55,1.21 a 24.53,24.53 0 0 1 -2.54,0.86 10,10 0 0 1 -2.36,0.36 5.76,5.76 0 0 1 -2.2,-0.45 5,5 0 0 1 -1.89,-1.45 6.12,6.12 0 0 1 -1.31,-2.41 5.78,5.78 0 0 1 -0.1,-2.41 8,8 0 0 1 0.81,-2.38 14.61,14.61 0 0 1 1.49,-2.25 22.26,22.26 0 0 1 1.85,-2 q 1,-1 2,-1.77 c 0.7,-0.59 1.44,-1.15 2.23,-1.7 0.79,-0.55 1.62,-1.06 2.44,-1.53 0.82,-0.47 1.63,-0.91 2.43,-1.31 0.8,-0.4 1.58,-0.74 2.3,-1 l 3.5,4.16"
       id="path14" />
    <path
       class="watermark-path"
       d="m 261.64,274.74 -6.29,-7.5 -12.35,10.37 6.3,7.5 -4.86,4.07 -15.09,-18 4.85,-4.08 5.49,6.55 12.31,-10.35 -5.49,-6.55 4.86,-4.07 15.09,18 -4.86,4.08"
       id="path15" />
    <path
       class="watermark-path"
       d="m 272.18,265.9 -15.09,-18 4.86,-4.08 15.09,18 -4.86,4.08"
       id="path16" />
    <path
       class="watermark-path"
       d="m 299.65,242.85 -22.51,-2.18 10.37,12.33 -4.85,4.08 -15.1,-18 5.28,-4.43 22.56,2.22 -10.4,-12.37 4.83,-4.06 15.09,18 -5.26,4.42"
       id="path17" />
    <path
       class="watermark-path"
       d="m 306.68,205.52 a 31.88,31.88 0 0 1 5.29,-3.66 34.48,34.48 0 0 1 5.14,-2.35 l 3.69,4.39 a 20.77,20.77 0 0 0 -2.37,0.61 20.47,20.47 0 0 0 -2.61,1 25.12,25.12 0 0 0 -2.76,1.49 23.9,23.9 0 0 0 -2.8,2 20.42,20.42 0 0 0 -2.8,2.77 12.77,12.77 0 0 0 -1.64,2.52 7,7 0 0 0 -0.68,2.24 6,6 0 0 0 0.66,3.64 8.16,8.16 0 0 0 0.94,1.38 9.12,9.12 0 0 0 1.08,1.07 6.39,6.39 0 0 0 1.47,0.91 6.73,6.73 0 0 0 1.88,0.48 6.54,6.54 0 0 0 2.28,-0.18 11.67,11.67 0 0 0 2.74,-1.07 19.38,19.38 0 0 0 3.18,-2.22 c 0.57,-0.48 1.06,-0.92 1.46,-1.31 a 14.57,14.57 0 0 0 1,-1.13 11.46,11.46 0 0 0 0.81,-1.05 l 0.74,-1.09 -1.82,-2.17 -5.45,4.57 -3.31,-3.94 10.31,-8.65 7.71,9.19 a 29,29 0 0 1 -1.67,2.43 q -1,1.26 -2.1,2.52 c -0.74,0.84 -1.5,1.65 -2.3,2.44 -0.8,0.79 -1.58,1.5 -2.33,2.14 a 31,31 0 0 1 -3.59,2.61 22.55,22.55 0 0 1 -3.64,1.83 15.64,15.64 0 0 1 -3.63,0.89 10.72,10.72 0 0 1 -3.49,-0.15 10.45,10.45 0 0 1 -3.28,-1.33 12.54,12.54 0 0 1 -3,-2.67 12,12 0 0 1 -2.08,-3.44 10.45,10.45 0 0 1 -0.71,-3.5 11.14,11.14 0 0 1 0.51,-3.51 15.72,15.72 0 0 1 1.56,-3.43 21.62,21.62 0 0 1 2.42,-3.28 30.3,30.3 0 0 1 3.15,-3"
       id="path18" />
    <path
       class="watermark-path"
       d="m 336.91,211.59 -15.1,-18 4.86,-4.08 11.79,14 13.13,-11 3.31,3.94 -18,15.1"
       id="path19" />
    <path
       class="watermark-path"
       d="m 374.54,164.71 a 12.28,12.28 0 0 1 2.59,4.81 10.44,10.44 0 0 1 0,5 14.62,14.62 0 0 1 -2.33,5 25.55,25.55 0 0 1 -4.56,4.85 26.07,26.07 0 0 1 -5.6,3.67 14.79,14.79 0 0 1 -5.38,1.43 10.43,10.43 0 0 1 -4.94,-0.89 13.24,13.24 0 0 1 -6.87,-8.18 10.48,10.48 0 0 1 0,-5 14.51,14.51 0 0 1 2.36,-5 25.23,25.23 0 0 1 4.57,-4.89 25,25 0 0 1 5.59,-3.64 14.45,14.45 0 0 1 5.35,-1.43 10.31,10.31 0 0 1 4.93,0.92 12.22,12.22 0 0 1 4.28,3.38 m -4.91,4.11 a 8.36,8.36 0 0 0 -2,-1.72 5.5,5.5 0 0 0 -2.65,-0.85 7.72,7.72 0 0 0 -3.32,0.57 14.49,14.49 0 0 0 -4,2.52 16.72,16.72 0 0 0 -2.38,2.4 10.15,10.15 0 0 0 -1.39,2.24 6.71,6.71 0 0 0 -0.56,2.1 5.69,5.69 0 0 0 0.1,1.9 6.21,6.21 0 0 0 0.61,1.69 9.85,9.85 0 0 0 1,1.44 10.48,10.48 0 0 0 1.26,1.23 6.67,6.67 0 0 0 1.57,0.92 6.1,6.1 0 0 0 1.85,0.41 6.8,6.8 0 0 0 2.15,-0.2 11.06,11.06 0 0 0 2.45,-1 17.67,17.67 0 0 0 2.77,-1.94 14.39,14.39 0 0 0 3.18,-3.52 7.74,7.74 0 0 0 1.14,-3.17 5.54,5.54 0 0 0 -0.37,-2.74 8.52,8.52 0 0 0 -1.36,-2.3"
       id="path20" />
    <path
       class="watermark-path"
       d="m 382.66,141.76 a 32.3,32.3 0 0 1 5.34,-3.66 34.12,34.12 0 0 1 5.15,-2.35 l 3.69,4.4 a 19.62,19.62 0 0 0 -2.37,0.6 22.08,22.08 0 0 0 -2.61,1 26,26 0 0 0 -2.77,1.49 23.9,23.9 0 0 0 -2.8,2 21,21 0 0 0 -2.8,2.78 13.19,13.19 0 0 0 -1.64,2.51 7.29,7.29 0 0 0 -0.68,2.24 6.36,6.36 0 0 0 0.06,2 5.8,5.8 0 0 0 0.61,1.68 8.12,8.12 0 0 0 0.93,1.38 9.16,9.16 0 0 0 1.08,1.08 6.56,6.56 0 0 0 1.48,0.9 6,6 0 0 0 1.87,0.48 6.76,6.76 0 0 0 2.28,-0.17 12,12 0 0 0 2.74,-1.08 18.57,18.57 0 0 0 3.18,-2.22 c 0.58,-0.48 1.06,-0.92 1.46,-1.31 0.4,-0.39 0.75,-0.77 1.05,-1.12 0.3,-0.35 0.57,-0.72 0.81,-1.06 l 0.73,-1.09 -1.82,-2.17 -5.45,4.57 -3.3,-3.94 10.3,-8.65 7.71,9.19 a 29,29 0 0 1 -1.67,2.43 q -1,1.26 -2.1,2.52 c -0.73,0.84 -1.5,1.66 -2.3,2.44 -0.8,0.78 -1.57,1.5 -2.33,2.14 a 31,31 0 0 1 -3.59,2.61 22.15,22.15 0 0 1 -3.64,1.83 15.56,15.56 0 0 1 -3.62,0.89 11,11 0 0 1 -3.49,-0.14 10.84,10.84 0 0 1 -3.28,-1.33 12.82,12.82 0 0 1 -3,-2.68 12.12,12.12 0 0 1 -2.08,-3.43 10.71,10.71 0 0 1 -0.79,-3.52 11.18,11.18 0 0 1 0.51,-3.51 15.51,15.51 0 0 1 1.57,-3.43 21.44,21.44 0 0 1 2.42,-3.28 30.19,30.19 0 0 1 3.14,-3"
       id="path21" />
    <path
       class="watermark-path"
       d="m 428.63,119.31 a 12.26,12.26 0 0 1 2.59,4.82 10.44,10.44 0 0 1 0,5 14.53,14.53 0 0 1 -2.34,5 25.29,25.29 0 0 1 -4.56,4.86 26,26 0 0 1 -5.59,3.67 14.84,14.84 0 0 1 -5.38,1.43 10.61,10.61 0 0 1 -4.95,-0.89 12.15,12.15 0 0 1 -4.3,-3.37 12,12 0 0 1 -2.56,-4.81 10.48,10.48 0 0 1 0,-5 14.39,14.39 0 0 1 2.35,-5 27.89,27.89 0 0 1 10.16,-8.53 14.49,14.49 0 0 1 5.36,-1.43 10.27,10.27 0 0 1 4.92,0.92 12.21,12.21 0 0 1 4.28,3.37 m -4.91,4.12 a 8.17,8.17 0 0 0 -2,-1.72 5.58,5.58 0 0 0 -2.65,-0.86 7.86,7.86 0 0 0 -3.31,0.58 14.49,14.49 0 0 0 -4,2.52 16.21,16.21 0 0 0 -2.38,2.4 9.85,9.85 0 0 0 -1.4,2.24 7,7 0 0 0 -0.56,2.1 6,6 0 0 0 0.1,1.9 6.23,6.23 0 0 0 0.62,1.69 8.49,8.49 0 0 0 1,1.44 9.18,9.18 0 0 0 1.26,1.23 6.67,6.67 0 0 0 1.57,0.92 6,6 0 0 0 1.84,0.41 6.86,6.86 0 0 0 2.16,-0.2 11.26,11.26 0 0 0 2.45,-1 17.62,17.62 0 0 0 2.76,-1.94 14.67,14.67 0 0 0 3.19,-3.52 7.71,7.71 0 0 0 1.13,-3.17 5.53,5.53 0 0 0 -0.36,-2.74 8.55,8.55 0 0 0 -1.37,-2.3"
       id="path22" />
  </g>
</svg>
